<?xml version="1.0" encoding="utf-8"?>
<!-- Generator: Adobe Illustrator 23.0.1, SVG Export Plug-In . SVG Version: 6.00 Build 0)  -->
<svg version="1.1" id="Layer_1" xmlns="http://www.w3.org/2000/svg" xmlns:xlink="http://www.w3.org/1999/xlink" x="0px" y="0px"
	 viewBox="0 0 440.6 394.7" style="enable-background:new 0 0 440.6 394.7;" xml:space="preserve">
<style type="text/css">
	.st0{fill:#404660;}
	.st1{fill:#505877;}
	.st2{fill:#5B608F;}
</style>
<polygon class="st0" points="87.4,165.4 123.2,201.3 402.2,201.3 "/>
<polygon class="st1" points="87.4,234.1 123.2,201.3 402.2,201.2 "/>
<path class="st2" d="M34.9,35l52.3-15.6c1.3-0.4,2.6-0.2,3.7,0.4L407.2,197c3.3,1.9,3.3,6.6,0,8.4L88.9,381.7
	c-1,0.6-2.2,0.7-3.3,0.5l-50.3-10.5c-2.7-0.6-4.4-3.3-3.7-6L67,236.4c0.5-1.9,2.2-3.3,4.2-3.5l331-31.6L71.5,166.4
	c-1.9-0.2-3.6-1.6-4.1-3.4L31.6,41C30.9,38.5,32.3,35.8,34.9,35z"/>
</svg>
