<?xml version="1.0" encoding="utf-8"?>
<!-- Generator: Adobe Illustrator 23.0.1, SVG Export Plug-In . SVG Version: 6.00 Build 0)  -->
<svg version="1.1" id="Layer_1" xmlns="http://www.w3.org/2000/svg" xmlns:xlink="http://www.w3.org/1999/xlink" x="0px" y="0px"
	 viewBox="0 0 378.3 363.1" style="enable-background:new 0 0 378.3 363.1;" xml:space="preserve">
<style type="text/css">
	.st1{fill:#D8D8D8;}
	.st2{fill:#F2F2F2;}
	.st3{fill:#FFFFFF;}
</style>
<polygon class="st1" points="58,146.2 93.8,182.1 372.8,182.1 "/>
<polygon class="st2" points="58,214.9 93.8,182.1 372.8,182 "/>
<path class="st3" d="M3.5,15.8L55.8,0.2c1.3-0.4,2.6-0.2,3.7,0.4l316.3,177.2c3.3,1.9,3.3,6.6,0,8.4L57.5,362.5
	c-1,0.6-2.2,0.7-3.3,0.5L3.9,352.5c-2.7-0.6-4.4-3.3-3.7-6l35.4-129.3c0.5-1.9,2.2-3.3,4.2-3.5l331-31.6L40.1,147.2
	c-1.9-0.2-3.6-1.6-4.1-3.4L0.2,21.8C-0.5,19.3,0.9,16.6,3.5,15.8z"/>
</svg>
